<svg xmlns="http://www.w3.org/2000/svg" width="100%" viewBox="0 0 1920 282.002">
  <g id="contact-ribbon" data-name="Grupo 49" transform="translate(0 -6158.999)">
    <path id="Sustracción_11" data-name="Sustracción 11" d="M3135.657,299h-1920V258.743l.271-.184.1-.066a210.327,210.327,0,0,1,180.75-26.371,240.049,240.049,0,0,1,86.39-96.44,237.828,237.828,0,0,1,236.486-10.795,199.212,199.212,0,0,1,67.115-52.95A197.064,197.064,0,0,1,1872.9,52.251a199.078,199.078,0,0,1,41.4,4.34,196.837,196.837,0,0,1,38.419,12.428,160.6,160.6,0,0,1,52.468-38A158.961,158.961,0,0,1,2036.7,20.632a161.232,161.232,0,0,1,66.3-.368,159.069,159.069,0,0,1,57.272,24.171,161.2,161.2,0,0,1,64.642,176.821,473.4,473.4,0,0,1,145.944-40.27,482.951,482.951,0,0,1,101.906-.291,473.836,473.836,0,0,1,94.532,19.648c15.014,4.76,29.968,10.341,44.445,16.589a350.575,350.575,0,0,1,115.836-86.4,346.434,346.434,0,0,1,107.439-29.849,353.473,353.473,0,0,1,74.279-.3,348.6,348.6,0,0,1,211.373,100.846c5.128,5.143,10.171,10.527,14.989,16V299Z" transform="translate(-1215.657 6141.999)"/>
    <path id="contact-ribbon-circle-1" data-name="Trazado 127" d="M30.628,0A30.718,30.718,0,1,1,0,30.718,30.673,30.673,0,0,1,30.628,0Z"/>
    <path id="contact-ribbon-circle-2" data-name="Trazado 126" d="M41.674,0A41.8,41.8,0,1,1,0,41.8,41.735,41.735,0,0,1,41.674,0Z"/>
    <path id="contact-ribbon-circle-3" data-name="Trazado 128" d="M24.6,0A24.675,24.675,0,1,1,0,24.675,24.639,24.639,0,0,1,24.6,0Z"/>
  </g>
</svg>
