<svg xmlns="http://www.w3.org/2000/svg" width="100%" viewBox="0 0 1912.001 280.001">
  <path id="Sustracción_8" data-name="Sustracción 8" d="M2069,280H157V240.028l.144-.1.223-.15a209.983,209.983,0,0,1,180-26.183A237.519,237.519,0,0,1,658.894,107.123a198.288,198.288,0,0,1,66.836-52.575,196.462,196.462,0,0,1,41.088-14.471,199.279,199.279,0,0,1,85.912-.768,196.457,196.457,0,0,1,38.26,12.34,159.954,159.954,0,0,1,52.25-37.731A158.657,158.657,0,0,1,974.621,3.605a161.027,161.027,0,0,1,66.024-.365,158.657,158.657,0,0,1,57.033,24,159.956,159.956,0,0,1,57.787,70.176,158.67,158.67,0,0,1,9.294,29.94,160.808,160.808,0,0,1-2.708,75.45,472.529,472.529,0,0,1,145.336-39.983,482.408,482.408,0,0,1,101.483-.291,473.265,473.265,0,0,1,94.138,19.508c14.955,4.727,29.846,10.269,44.261,16.471a349.077,349.077,0,0,1,115.354-85.783,345.87,345.87,0,0,1,106.991-29.636,353.209,353.209,0,0,1,73.969-.3,347.465,347.465,0,0,1,210.492,100.13c5.106,5.106,10.128,10.453,14.927,15.891V280ZM1268.5,142a30.406,30.406,0,1,1,11.873-2.4A30.315,30.315,0,0,1,1268.5,142Zm-955-17a24.421,24.421,0,1,1,9.537-1.925A24.347,24.347,0,0,1,313.5,125Zm1226-7a41.372,41.372,0,1,1,16.154-3.262A41.247,41.247,0,0,1,1539.5,118Z" transform="translate(-157)"/>
</svg>
