<svg xmlns="http://www.w3.org/2000/svg" width="287.865" height="76.248" viewBox="0 0 287.865 76.248">
  <g id="linkedin" transform="translate(-1.785 -1.783)">
    <path id="Trazado_65" data-name="Trazado 65" d="M213.882,7.245a5.534,5.534,0,0,1,5.6-5.462H284.05a5.533,5.533,0,0,1,5.6,5.462V72.57a5.532,5.532,0,0,1-5.6,5.461H219.482a5.532,5.532,0,0,1-5.6-5.46V7.244Z" fill="#fff"/>
    <path id="Trazado_66" data-name="Trazado 66" d="M1.785,65.652h31.62V55.27H13.23V15.665H1.785Zm47.629,0V31.222H37.97v34.43Zm-5.721-39.13c3.99,0,6.474-2.644,6.474-5.95-.074-3.378-2.484-5.947-6.4-5.947s-6.475,2.57-6.475,5.947c0,3.306,2.484,5.95,6.324,5.95h.075Zm11.034,39.13H66.171V46.424a7.808,7.808,0,0,1,.377-2.791,6.262,6.262,0,0,1,5.871-4.186c4.142,0,5.8,3.158,5.8,7.784v18.42H89.66V45.91c0-10.576-5.646-15.5-13.176-15.5a11.4,11.4,0,0,0-10.39,5.8h.077V31.222H54.727C54.878,34.453,54.727,65.652,54.727,65.652Zm51.078-49.987H94.361V65.652h11.444V54.489l2.86-3.6,8.96,14.764H131.7L116.647,44.279l13.174-14.54H116.045s-9.411,13.008-10.24,14.552Z" fill="#fff"/>
    <path id="Trazado_67" data-name="Trazado 67" d="M162.306,51.29a27.9,27.9,0,0,0,.377-4.5c0-8.9-4.518-17.936-16.413-17.936-12.724,0-18.6,10.063-18.6,19.19,0,11.288,7.153,18.337,19.65,18.337a35.581,35.581,0,0,0,13.327-2.275l-1.506-7.558a31.148,31.148,0,0,1-10.164,1.537c-5.345,0-10.012-2.195-10.389-6.871l23.715.072v0Zm-23.79-7.742c.3-2.938,2.26-7.273,7.153-7.273,5.194,0,6.4,4.628,6.4,7.273H138.517ZM190.93,15.665v17.3h-.151c-1.657-2.422-5.12-4.038-9.71-4.038-8.81,0-16.564,7.05-16.49,19.094,0,11.164,7,18.435,15.735,18.435,4.744,0,9.26-2.058,11.52-6.024h.225l.453,5.216h10.163c-.15-2.424-.3-6.61-.3-10.723V15.664H190.929Zm0,34.05a12.706,12.706,0,0,1-.227,2.495,6.734,6.734,0,0,1-6.7,5.361c-4.742,0-7.83-3.818-7.83-9.84,0-5.654,2.637-10.208,7.906-10.208a6.764,6.764,0,0,1,6.7,5.433,9.529,9.529,0,0,1,.15,2.058v4.7Z" fill="#fff"/>
    <path id="Trazado_68" data-name="Trazado 68" d="M236.85,65.61V31.18H225.406V65.61h11.445Zm-5.72-39.13c3.99,0,6.474-2.644,6.474-5.948-.075-3.379-2.484-5.949-6.4-5.949s-6.475,2.57-6.475,5.949c0,3.3,2.483,5.948,6.324,5.948h.074Zm12.054,39.13h11.443V46.385A7.842,7.842,0,0,1,255,43.593a6.263,6.263,0,0,1,5.872-4.186c4.14,0,5.8,3.157,5.8,7.786V65.61h11.443V45.869c0-10.575-5.645-15.5-13.174-15.5a11.4,11.4,0,0,0-10.39,5.8h.076V31.181H243.185c.149,3.23,0,34.43,0,34.43Z"/>
  </g>
</svg>
