<svg xmlns="http://www.w3.org/2000/svg" width="176.733" height="49.752" viewBox="0 0 176.733 49.752">
  <g id="linkedin" transform="translate(0.215 0.217)">
    <g id="Sustracción_9" data-name="Sustracción 9" transform="translate(3267.834 5147.248)">
      <path d="M -3096.6767578125 -5098.71240234375 L -3135.4208984375 -5098.71240234375 C -3137.824951171875 -5098.71240234375 -3139.781005859375 -5100.630859375 -3139.781005859375 -5102.98876953125 L -3139.781005859375 -5142.1875 C -3139.781005859375 -5144.5458984375 -3137.824951171875 -5146.46484375 -3135.4208984375 -5146.46484375 L -3096.6767578125 -5146.46484375 C -3094.272705078125 -5146.46484375 -3092.316650390625 -5144.5458984375 -3092.316650390625 -5142.1875 L -3092.316650390625 -5102.98876953125 C -3092.316650390625 -5100.630859375 -3094.272705078125 -5098.71240234375 -3096.6767578125 -5098.71240234375 Z M -3106.104248046875 -5108.166015625 L -3101.23828125 -5108.166015625 L -3101.23828125 -5119.01171875 C -3101.23828125 -5121.7900390625 -3101.908935546875 -5123.92626953125 -3103.23193359375 -5125.36181640625 C -3104.40576171875 -5126.6357421875 -3106.103759765625 -5127.30908203125 -3108.142578125 -5127.30908203125 C -3109.5400390625 -5127.30908203125 -3110.734619140625 -5126.97265625 -3111.69287109375 -5126.3095703125 C -3112.55078125 -5125.71630859375 -3113.10546875 -5124.95361328125 -3113.49267578125 -5124.35546875 L -3115.33203125 -5121.5146484375 L -3115.33203125 -5124.89892578125 L -3115.33203125 -5126.8251953125 L -3120.1767578125 -5126.8251953125 C -3120.13232421875 -5123.056640625 -3120.1787109375 -5111.6328125 -3120.1943359375 -5108.166015625 L -3115.33203125 -5108.166015625 L -3115.33203125 -5118.70166015625 C -3115.33203125 -5119.61376953125 -3115.239501953125 -5120.24658203125 -3115.032470703125 -5120.7529296875 C -3114.794189453125 -5121.3447265625 -3114.33544921875 -5122.19140625 -3113.501953125 -5122.87060546875 C -3112.67236328125 -5123.5458984375 -3111.690673828125 -5123.88818359375 -3110.583251953125 -5123.88818359375 C -3109.13818359375 -5123.88818359375 -3107.964111328125 -5123.33740234375 -3107.188232421875 -5122.29541015625 C -3106.468994140625 -5121.32958984375 -3106.104248046875 -5119.95703125 -3106.104248046875 -5118.21630859375 L -3106.104248046875 -5108.166015625 Z M -3130.8671875 -5108.166015625 L -3125.999755859375 -5108.166015625 L -3125.999755859375 -5126.8251953125 L -3130.8671875 -5126.8251953125 L -3130.8671875 -5108.166015625 Z M -3128.385498046875 -5136.78369140625 C -3130.111572265625 -5136.78369140625 -3131.271240234375 -5135.75146484375 -3131.271240234375 -5134.21484375 C -3131.271240234375 -5133.50634765625 -3131.011474609375 -5132.86279296875 -3130.53955078125 -5132.40234375 C -3130.0322265625 -5131.9072265625 -3129.319091796875 -5131.6455078125 -3128.477294921875 -5131.6455078125 L -3128.43212890625 -5131.6455078125 C -3127.547119140625 -5131.6455078125 -3126.8046875 -5131.9091796875 -3126.28466796875 -5132.408203125 C -3125.81201171875 -5132.86181640625 -3125.550537109375 -5133.49951171875 -3125.5478515625 -5134.2041015625 C -3125.5869140625 -5135.79541015625 -3126.67333984375 -5136.78369140625 -3128.385498046875 -5136.78369140625 Z" stroke="none"/>
      <path d="M -3096.6767578125 -5099.71240234375 C -3094.823974609375 -5099.71240234375 -3093.316650390625 -5101.18212890625 -3093.316650390625 -5102.98876953125 L -3093.316650390625 -5142.1875 C -3093.316650390625 -5143.99462890625 -3094.823974609375 -5145.46484375 -3096.6767578125 -5145.46484375 L -3135.4208984375 -5145.46484375 C -3137.273681640625 -5145.46484375 -3138.781005859375 -5143.99462890625 -3138.781005859375 -5142.1875 L -3138.781005859375 -5102.98876953125 C -3138.781005859375 -5101.18212890625 -3137.273681640625 -5099.71240234375 -3135.4208984375 -5099.71240234375 L -3096.6767578125 -5099.71240234375 M -3110.583251953125 -5122.88818359375 C -3111.454833984375 -5122.88818359375 -3112.22412109375 -5122.62158203125 -3112.8701171875 -5122.095703125 C -3113.540283203125 -5121.54931640625 -3113.912109375 -5120.85888671875 -3114.10595703125 -5120.37646484375 C -3114.26025390625 -5120.0009765625 -3114.33203125 -5119.46875 -3114.33203125 -5118.70166015625 L -3114.33203125 -5107.166015625 L -3121.19921875 -5107.166015625 C -3121.197998046875 -5107.34619140625 -3121.1083984375 -5125.88623046875 -3121.197998046875 -5127.8251953125 L -3114.33203125 -5127.8251953125 L -3114.33203125 -5124.89892578125 C -3113.894775390625 -5125.57421875 -3113.264404296875 -5126.4384765625 -3112.261962890625 -5127.1318359375 C -3111.133056640625 -5127.9130859375 -3109.7470703125 -5128.30908203125 -3108.142578125 -5128.30908203125 C -3105.817138671875 -5128.30908203125 -3103.86474609375 -5127.5244140625 -3102.49658203125 -5126.03955078125 C -3100.998046875 -5124.41357421875 -3100.23828125 -5122.04931640625 -3100.23828125 -5119.01171875 L -3100.23828125 -5107.166015625 L -3107.104248046875 -5107.166015625 L -3107.104248046875 -5118.21630859375 C -3107.104248046875 -5121.2724609375 -3108.307373046875 -5122.88818359375 -3110.583251953125 -5122.88818359375 M -3131.8671875 -5127.8251953125 L -3124.999755859375 -5127.8251953125 L -3124.999755859375 -5107.166015625 L -3131.8671875 -5107.166015625 L -3131.8671875 -5127.8251953125 M -3128.385498046875 -5137.78369140625 C -3126.135986328125 -5137.78369140625 -3124.59375 -5136.349609375 -3124.5478515625 -5134.21484375 C -3124.5478515625 -5133.23095703125 -3124.918701171875 -5132.3330078125 -3125.59228515625 -5131.6865234375 C -3126.30224609375 -5131.00537109375 -3127.2841796875 -5130.6455078125 -3128.43212890625 -5130.6455078125 L -3128.477294921875 -5130.6455078125 C -3129.585205078125 -5130.6455078125 -3130.539794921875 -5131.00537109375 -3131.238037109375 -5131.6865234375 C -3131.904296875 -5132.3369140625 -3132.271240234375 -5133.23486328125 -3132.271240234375 -5134.21484375 C -3132.271240234375 -5136.31591796875 -3130.67333984375 -5137.78369140625 -3128.385498046875 -5137.78369140625 M -3096.6767578125 -5097.71240234375 L -3135.4208984375 -5097.71240234375 C -3138.37646484375 -5097.71240234375 -3140.781005859375 -5100.07958984375 -3140.781005859375 -5102.98876953125 L -3140.781005859375 -5142.1875 C -3140.781005859375 -5145.09765625 -3138.37646484375 -5147.46484375 -3135.4208984375 -5147.46484375 L -3096.6767578125 -5147.46484375 C -3093.72119140625 -5147.46484375 -3091.316650390625 -5145.09765625 -3091.316650390625 -5142.1875 L -3091.316650390625 -5102.98876953125 C -3091.316650390625 -5100.07958984375 -3093.72119140625 -5097.71240234375 -3096.6767578125 -5097.71240234375 Z M -3105.104248046875 -5109.166015625 L -3102.23828125 -5109.166015625 L -3102.23828125 -5119.01171875 C -3102.23828125 -5121.53076171875 -3102.820068359375 -5123.439453125 -3103.96728515625 -5124.68408203125 C -3104.94677734375 -5125.7470703125 -3106.390625 -5126.30908203125 -3108.142578125 -5126.30908203125 C -3109.332763671875 -5126.30908203125 -3110.3359375 -5126.03271484375 -3111.123779296875 -5125.4873046875 C -3111.458740234375 -5125.255859375 -3111.738525390625 -5124.99267578125 -3111.97802734375 -5124.72119140625 C -3111.530029296875 -5124.83203125 -3111.06298828125 -5124.88818359375 -3110.583251953125 -5124.88818359375 C -3108.342529296875 -5124.88818359375 -3107.06396484375 -5123.80322265625 -3106.38623046875 -5122.892578125 C -3105.53564453125 -5121.75048828125 -3105.104248046875 -5120.17724609375 -3105.104248046875 -5118.21630859375 L -3105.104248046875 -5109.166015625 Z M -3119.190185546875 -5109.166015625 L -3116.33203125 -5109.166015625 L -3116.33203125 -5118.13037109375 L -3116.33203125 -5124.89892578125 L -3116.33203125 -5125.8251953125 L -3119.16845703125 -5125.8251953125 C -3119.142333984375 -5121.71240234375 -3119.17333984375 -5113.0859375 -3119.190185546875 -5109.166015625 Z M -3129.8671875 -5109.166015625 L -3126.999755859375 -5109.166015625 L -3126.999755859375 -5125.8251953125 L -3129.8671875 -5125.8251953125 L -3129.8671875 -5109.166015625 Z M -3128.385498046875 -5135.78369140625 C -3128.827880859375 -5135.78369140625 -3130.271240234375 -5135.67041015625 -3130.271240234375 -5134.21484375 C -3130.271240234375 -5133.77197265625 -3130.12255859375 -5133.392578125 -3129.841064453125 -5133.11767578125 C -3129.52001953125 -5132.8046875 -3129.06103515625 -5132.6455078125 -3128.477294921875 -5132.6455078125 L -3128.43212890625 -5132.6455078125 C -3127.99853515625 -5132.6455078125 -3127.39404296875 -5132.7294921875 -3126.976806640625 -5133.1298828125 C -3126.70068359375 -5133.39501953125 -3126.552490234375 -5133.7626953125 -3126.5478515625 -5134.19384765625 C -3126.589599609375 -5135.576171875 -3127.715576171875 -5135.78369140625 -3128.385498046875 -5135.78369140625 Z" stroke="none" fill="#fff"/>
    </g>
    <g id="Trazado_66" data-name="Trazado 66" transform="translate(0 -5.136)">
      <path d="M 65.20191955566406 46.24361801147461 L 64.20191955566406 46.24361801147461 L 57.33498382568359 46.24361801147461 L 56.33498382568359 46.24361801147461 L 56.33498382568359 45.24361801147461 L 56.33498382568359 15.24905109405518 L 56.33498382568359 14.24905109405518 L 57.33498382568359 14.24905109405518 L 64.20191955566406 14.24905109405518 L 65.20191955566406 14.24905109405518 L 65.20191955566406 15.24905109405518 L 65.20191955566406 29.17014312744141 C 66.89913177490234 26.75590515136719 69.16089630126953 23.62670135498047 69.53619384765625 23.10795211791992 L 69.83560943603516 22.69410705566406 L 70.34639739990234 22.69410705566406 L 78.61264801025391 22.69410705566406 L 80.86811828613281 22.69410705566406 L 79.35370635986328 24.36553955078125 L 71.98604583740234 32.49715805053711 L 80.55946350097656 44.66770553588867 L 81.66958618164062 46.24360656738281 L 79.741943359375 46.24360656738281 L 71.29447174072266 46.24360656738281 L 70.73160552978516 46.24360656738281 L 70.43958282470703 45.76241683959961 L 65.80811309814453 38.13082885742188 L 65.20191955566406 38.89408111572266 L 65.20191955566406 45.24361801147461 L 65.20191955566406 46.24361801147461 Z M 41.41965103149414 46.24361801147461 L 40.41965103149414 46.24361801147461 L 33.55270767211914 46.24361801147461 L 32.5478515625 46.24361801147461 L 32.55271911621094 45.23877334594727 C 32.55361938476562 45.05183029174805 32.64218521118164 26.52177429199219 32.55379486083984 24.63067436218262 L 32.50487518310547 23.583984375 L 33.55270767211914 23.583984375 L 40.41965103149414 23.583984375 L 41.41965103149414 23.583984375 L 41.41965103149414 24.583984375 L 41.41965103149414 24.83361053466797 C 41.57733535766602 24.70301246643066 41.74441146850586 24.57554626464844 41.92150497436523 24.45302963256836 C 43.22064971923828 23.55426216125488 44.79738616943359 23.09855079650879 46.60792922973633 23.09855079650879 C 49.22047424316406 23.09855079650879 51.42760848999023 23.99480628967285 52.99069595336914 25.6904411315918 C 54.66514205932617 27.50687408447266 55.51416397094727 30.09989547729492 55.51416397094727 33.3974723815918 L 55.51416397094727 45.24300765991211 L 55.51416397094727 46.24300765991211 L 54.51416397094727 46.24300765991211 L 47.64841842651367 46.24300765991211 L 46.64841842651367 46.24300765991211 L 46.64841842651367 45.24300765991211 L 46.64841842651367 34.19013977050781 C 46.64841842651367 30.51937294006348 44.84692764282227 30.51937294006348 44.16875076293945 30.51937294006348 C 42.50999450683594 30.51937294006348 41.80142974853516 31.83732986450195 41.57377243041992 32.40396118164062 L 41.57191848754883 32.40858459472656 L 41.57001876831055 32.41318511962891 C 41.47024154663086 32.65456390380859 41.41965103149414 33.08949661254883 41.41965103149414 33.70590591430664 L 41.41965103149414 45.24361801147461 L 41.41965103149414 46.24361801147461 Z M 31.36465072631836 46.24361801147461 L 30.36465072631836 46.24361801147461 L 23.49770736694336 46.24361801147461 L 22.49770736694336 46.24361801147461 L 22.49770736694336 45.24361801147461 L 22.49770736694336 24.583984375 L 22.49770736694336 23.583984375 L 23.49770736694336 23.583984375 L 30.36465072631836 23.583984375 L 31.36465072631836 23.583984375 L 31.36465072631836 24.583984375 L 31.36465072631836 45.24361801147461 L 31.36465072631836 46.24361801147461 Z M 21.75849533081055 46.24361801147461 L 20.75849533081055 46.24361801147461 L 1.784995675086975 46.24361801147461 L 0.7849957346916199 46.24361801147461 L 0.7849957346916199 45.24361801147461 L 0.7849957346916199 15.24905109405518 L 0.7849957346916199 14.24905109405518 L 1.784995675086975 14.24905109405518 L 8.65254020690918 14.24905109405518 L 9.65254020690918 14.24905109405518 L 9.65254020690918 15.24905109405518 L 9.65254020690918 38.0139274597168 L 20.75849533081055 38.0139274597168 L 21.75849533081055 38.0139274597168 L 21.75849533081055 39.0139274597168 L 21.75849533081055 45.24361801147461 L 21.75849533081055 46.24361801147461 Z M 26.93178367614746 22.76376342773438 L 26.88678550720215 22.76376342773438 C 25.53175163269043 22.76376342773438 24.30303955078125 22.29302978515625 23.4270076751709 21.43828582763672 C 22.5661735534668 20.59836196899414 22.09208488464355 19.44599533081055 22.09208488464355 18.19348526000977 C 22.09208488464355 15.54631805419922 24.14665222167969 13.62499618530273 26.97738456726074 13.62499618530273 C 29.76779556274414 13.62499618530273 31.75760650634766 15.49461841583252 31.81624031066895 18.17158508300781 L 31.81648445129395 18.18252944946289 L 31.81648445129395 18.19348526000977 C 31.81648445129395 20.84168434143066 29.76217269897461 22.76376342773438 26.93178367614746 22.76376342773438 Z" stroke="none"/>
      <path d="M 79.741943359375 45.24361419677734 L 70.7076416015625 32.41880035400391 L 78.61264801025391 23.69410705566406 L 70.34640502929688 23.69410705566406 C 70.34640502929688 23.69410705566406 64.69935607910156 31.49951934814453 64.20191955566406 32.42600250244141 L 64.20191955566406 15.24904823303223 L 57.33498001098633 15.24904823303223 L 57.33498001098633 45.24361419677734 L 64.20191955566406 45.24361419677734 L 64.20191955566406 38.54528427124023 L 65.91805267333984 36.38451766967773 L 71.29447174072266 45.24361419677734 L 79.741943359375 45.24361419677734 M 40.41965103149414 45.24361419677734 L 40.41965103149414 33.70590591430664 C 40.41965103149414 33.08845901489258 40.46405029296875 32.47101211547852 40.6458625793457 32.03117752075195 C 41.14149856567383 30.79747200012207 42.27139282226562 29.51937675476074 44.16874313354492 29.51937675476074 C 46.65414428710938 29.51937675476074 47.64841461181641 31.4143180847168 47.64841461181641 34.19014358520508 L 47.64841461181641 45.24301147460938 L 54.51415634155273 45.24301147460938 L 54.51415634155273 33.3974723815918 C 54.51415634155273 27.05137825012207 51.12629699707031 24.09854316711426 46.60793304443359 24.09854316711426 C 42.96623611450195 24.09854316711426 41.33242416381836 26.10025024414062 40.41965103149414 27.50830459594727 L 40.41965103149414 27.58002471923828 L 40.37343978881836 27.58002471923828 C 40.3886604309082 27.55626106262207 40.40401077270508 27.53243064880371 40.41965103149414 27.50830459594727 L 40.41965103149414 24.5839900970459 L 33.55270767211914 24.5839900970459 C 33.6433219909668 26.52274322509766 33.55270767211914 45.24361419677734 33.55270767211914 45.24361419677734 L 40.41965103149414 45.24361419677734 M 30.36465072631836 45.24361419677734 L 30.36465072631836 24.5839900970459 L 23.49770927429199 24.5839900970459 L 23.49770927429199 45.24361419677734 L 30.36465072631836 45.24361419677734 M 20.75849723815918 45.24361419677734 L 20.75849723815918 39.01391983032227 L 8.652544021606445 39.01391983032227 L 8.652544021606445 15.24904823303223 L 1.785002946853638 15.24904823303223 L 1.785002946853638 45.24361419677734 L 20.75849723815918 45.24361419677734 M 26.9317798614502 21.76376533508301 C 29.32596778869629 21.76376533508301 30.81648445129395 20.17723655700684 30.81648445129395 18.19348335266113 C 30.77208518981934 16.16651916503906 29.32596778869629 14.62500095367432 26.97739028930664 14.62500095367432 C 24.62820243835449 14.62500095367432 23.09208488464355 16.16711807250977 23.09208488464355 18.19348335266113 C 23.09208488464355 20.17723655700684 24.58260345458984 21.76376533508301 26.88677978515625 21.76376533508301 L 26.9317798614502 21.76376533508301 M 83.59723663330078 47.24361419677734 L 79.741943359375 47.24361419677734 L 71.29447174072266 47.24361419677734 L 70.16874694824219 47.24361419677734 L 69.58469390869141 46.28125 L 66.20191955566406 40.70722198486328 L 66.20191955566406 45.24361419677734 L 66.20191955566406 47.24361419677734 L 64.20191955566406 47.24361419677734 L 57.33498001098633 47.24361419677734 L 55.33498001098633 47.24361419677734 L 55.33498001098633 47.24301147460938 L 54.51415634155273 47.24301147460938 L 47.64841461181641 47.24301147460938 L 45.64841461181641 47.24301147460938 L 45.64841461181641 45.24301147460938 L 45.64841461181641 34.19014358520508 C 45.64841461181641 32.82047271728516 45.3598518371582 32.19247055053711 45.18783950805664 31.94003677368164 C 45.08766174316406 31.79302406311035 44.90119171142578 31.51937675476074 44.16874313354492 31.51937675476074 C 43.20841598510742 31.51937675476074 42.73214340209961 32.20314407348633 42.5016975402832 32.77675247192383 L 42.49797821044922 32.78598785400391 L 42.49592208862305 32.79097747802734 C 42.4856071472168 32.82099151611328 42.41965103149414 33.03913497924805 42.41965103149414 33.70590591430664 L 42.41965103149414 45.24361419677734 L 42.41965103149414 47.24361419677734 L 40.41965103149414 47.24361419677734 L 33.55270767211914 47.24361419677734 L 32.36465072631836 47.24361419677734 L 30.36465072631836 47.24361419677734 L 23.49770927429199 47.24361419677734 L 22.75849723815918 47.24361419677734 L 20.75849723815918 47.24361419677734 L 1.785002946853638 47.24361419677734 L -0.2149970829486847 47.24361419677734 L -0.2149970829486847 45.24361419677734 L -0.2149970829486847 15.24904823303223 L -0.2149970829486847 13.24904823303223 L 1.785002946853638 13.24904823303223 L 8.652544021606445 13.24904823303223 L 10.65254402160645 13.24904823303223 L 10.65254402160645 15.24904823303223 L 10.65254402160645 37.01391983032227 L 20.75849723815918 37.01391983032227 L 21.49770927429199 37.01391983032227 L 21.49770927429199 24.5839900970459 L 21.49770927429199 22.5839900970459 L 23.22734069824219 22.5839900970459 C 23.05266761779785 22.45112228393555 22.8861198425293 22.30766868591309 22.7286491394043 22.15402412414551 C 21.67329788208008 21.12430763244629 21.09208488464355 19.71776580810547 21.09208488464355 18.19348335266113 C 21.09208488464355 16.64162445068359 21.69221496582031 15.22126007080078 22.78190803527832 14.19403648376465 C 23.85526084899902 13.18222427368164 25.34523773193359 12.62500095367432 26.97739028930664 12.62500095367432 C 28.63456726074219 12.62500095367432 30.07785034179688 13.17353057861328 31.15118026733398 14.21128368377686 C 32.19115447998047 15.21677780151367 32.78240203857422 16.61545944213867 32.81600189208984 18.14968299865723 L 32.81648635864258 18.17157745361328 L 32.81648635864258 18.19348335266113 C 32.81648635864258 19.72810745239258 32.22696685791016 21.13882446289062 31.15654373168945 22.1657657623291 C 31.00096893310547 22.31501770019531 30.83655548095703 22.4544792175293 30.66393852233887 22.5839900970459 L 31.45705032348633 22.5839900970459 L 33.55270767211914 22.5839900970459 L 40.41965103149414 22.5839900970459 L 42.41965103149414 22.5839900970459 L 42.41965103149414 23.00578117370605 C 43.65341186523438 22.40313720703125 45.05696868896484 22.09854316711426 46.60793304443359 22.09854316711426 C 49.50716781616211 22.09854316711426 51.96854400634766 23.10622406005859 53.72594451904297 25.01264762878418 C 54.37044906616211 25.71179962158203 54.9090690612793 26.52295303344727 55.33498001098633 27.43420791625977 L 55.33498001098633 15.24904823303223 L 55.33498001098633 13.24904823303223 L 57.33498001098633 13.24904823303223 L 64.20191955566406 13.24904823303223 L 66.20191955566406 13.24904823303223 L 66.20191955566406 15.24904823303223 L 66.20191955566406 26.03133392333984 C 67.23411560058594 24.58680152893066 68.20864868164062 23.23689842224121 68.72601318359375 22.52178955078125 L 69.3248291015625 21.69410705566406 L 70.34640502929688 21.69410705566406 L 78.61264801025391 21.69410705566406 L 83.12358093261719 21.69410705566406 L 80.09476470947266 25.03697776794434 L 73.26445770263672 32.57553100585938 L 81.37699127197266 44.09182357788086 L 83.59723663330078 47.24361419677734 Z" stroke="none" fill="#fff"/>
    </g>
    <g id="Trazado_67" data-name="Trazado 67" transform="translate(-50.349 -5.552)">
      <path d="M 159.2600860595703 47.14400100708008 C 156.3801574707031 47.14400100708008 153.7397918701172 45.95204925537109 151.8253326416016 43.7877082824707 C 150.8696441650391 42.70726776123047 150.1255035400391 41.42242050170898 149.6135864257812 39.96883773803711 C 149.3016662597656 39.08314514160156 149.0806274414062 38.14643859863281 148.9520263671875 37.16827774047852 L 148.4541778564453 37.12606430053711 L 148.4514007568359 38.04008102416992 L 135.5379638671875 38.00087738037109 C 136.1447143554688 39.15017318725586 137.6483459472656 40.11980056762695 140.4582061767578 40.11980056762695 C 142.6409912109375 40.11980056762695 144.4248809814453 39.85103988647461 146.2423400878906 39.24835968017578 L 147.316650390625 38.89210891723633 L 147.5378112792969 40.00212097167969 L 148.4414672851562 44.53728103637695 L 148.6025390625 45.34555816650391 L 147.8398895263672 45.65802764892578 C 145.5081481933594 46.61338806152344 142.6900787353516 47.0977897644043 139.4639282226562 47.0977897644043 C 135.5523986816406 47.0977897644043 132.3035888671875 45.97898101806641 130.0687713623047 43.86230087280273 C 127.8472442626953 41.75822067260742 126.6730041503906 38.7264404296875 126.6730041503906 35.09473037719727 C 126.6730041503906 31.96360015869141 127.7480163574219 28.88266944885254 129.6223907470703 26.64192008972168 C 131.8453369140625 23.98446846008301 135.0299987792969 22.57981872558594 138.8320922851562 22.57981872558594 C 142.4097900390625 22.57981872558594 145.3113250732422 23.88190841674805 147.2229919433594 26.34531021118164 C 148.2140960693359 27.62247657775879 148.9267883300781 29.21181106567383 149.3216552734375 30.98501777648926 C 149.4387054443359 30.54881286621094 149.5760345458984 30.12361907958984 149.7334594726562 29.71043014526367 C 150.3246917724609 28.15872955322266 151.1846771240234 26.80830001831055 152.2895355224609 25.69662857055664 C 154.2582855224609 23.71574974060059 156.8946990966797 22.62483024597168 159.7131195068359 22.62483024597168 C 161.6420440673828 22.62483024597168 163.3369750976562 23.05998802185059 164.6301879882812 23.85822296142578 L 164.6301879882812 16.07389640808105 L 163.2443695068359 14.66459941864014 L 165.6295928955078 14.66399955749512 L 172.4965362548828 14.66399955749512 L 173.4965362548828 14.66399955749512 L 173.4965362548828 15.66399955749512 L 173.4965362548828 39.22486114501953 C 173.4965362548828 41.78997802734375 173.5931243896484 44.26087951660156 173.6758422851562 45.5974006652832 L 173.7415618896484 46.6591682434082 L 172.6777496337891 46.6591682434082 L 166.5794677734375 46.6591682434082 L 165.6625518798828 46.6591682434082 L 165.5832214355469 45.74568939208984 L 165.5107116699219 44.91093826293945 C 164.9829711914062 45.38272857666016 164.3838043212891 45.79021453857422 163.7253570556641 46.1220703125 C 162.3988494873047 46.79061889648438 160.8547821044922 47.14400100708008 159.2600860595703 47.14400100708008 Z M 161.5198669433594 29.78042984008789 C 160.3491973876953 29.78042984008789 159.4260406494141 30.24189949035645 158.7760314941406 31.15200996398926 C 158.1310882568359 32.05504989624023 157.7758941650391 33.38813781738281 157.7758941650391 34.90571975708008 C 157.7758941650391 36.44493103027344 158.1435699462891 37.71844863891602 158.8391418457031 38.58860015869141 C 159.4871063232422 39.39917755126953 160.3736877441406 39.8101806640625 161.4742584228516 39.8101806640625 C 162.9826965332031 39.8101806640625 164.2044830322266 38.83660125732422 164.5154266357422 37.38730621337891 C 164.5894317626953 37.02962493896484 164.6301879882812 36.57125854492188 164.6301879882812 36.09621047973633 L 164.6301879882812 33.275390625 C 164.6301879882812 32.91877746582031 164.6301879882812 32.55002975463867 164.5648193359375 32.26115798950195 C 164.3069458007812 31.11627960205078 163.3549194335938 29.78042984008789 161.5198669433594 29.78042984008789 Z M 135.4234771728516 31.39571952819824 L 141.2043609619141 31.39571952819824 C 141.1040496826172 30.93142509460449 140.9369049072266 30.49992752075195 140.7177276611328 30.1569995880127 C 140.2337493896484 29.39970970153809 139.4989776611328 29.03157997131348 138.4714508056641 29.03157997131348 C 137.4767150878906 29.03157997131348 136.6716766357422 29.41459846496582 136.0786895751953 30.17000961303711 C 135.8090515136719 30.51350402832031 135.5841674804688 30.93877792358398 135.4234771728516 31.39571952819824 Z" stroke="none"/>
      <path d="M 159.2600860595703 46.14400100708008 C 162.1067047119141 46.14400100708008 164.8165130615234 44.90909957885742 166.1726226806641 42.52931976318359 L 166.3076477050781 42.52931976318359 L 166.5794677734375 45.6591682434082 L 172.6777496337891 45.6591682434082 C 172.5877380371094 44.20465087890625 172.4965362548828 41.69284820556641 172.4965362548828 39.22486114501953 L 172.4965362548828 15.66399955749512 L 165.6295928955078 15.66399955749512 L 165.6301879882812 15.66459941864014 L 165.6301879882812 26.04781913757324 L 165.5395812988281 26.04781913757324 C 164.5453033447266 24.59450912475586 162.4673461914062 23.62483024597168 159.7131195068359 23.62483024597168 C 154.4267120361328 23.62483024597168 149.7739410400391 27.85515975952148 149.8183441162109 35.08213043212891 C 149.8183441162109 41.78105926513672 154.0204772949219 46.14400100708008 159.2600860595703 46.14400100708008 M 161.5198669433594 28.78042984008789 C 163.642822265625 28.78042984008789 165.1333465576172 30.23435020446777 165.5401763916016 32.04048919677734 C 165.6301879882812 32.43832015991211 165.6301879882812 32.87936019897461 165.6301879882812 33.275390625 L 165.6301879882812 36.09560775756836 L 165.6301879882812 36.09621047973633 C 165.6301879882812 36.62424850463867 165.5851898193359 37.15409851074219 165.4939727783203 37.59333038330078 C 165.0889434814453 39.48947906494141 163.4622192382812 40.8101806640625 161.4742584228516 40.8101806640625 C 158.6288299560547 40.8101806640625 156.7758941650391 38.51919937133789 156.7758941650391 34.90571975708008 C 156.7758941650391 31.5130500793457 158.3582153320312 28.78042984008789 161.5198669433594 28.78042984008789 M 139.4639282226562 46.0977897644043 C 142.4461669921875 46.0977897644043 145.2009887695312 45.6585578918457 147.4607543945312 44.73268890380859 L 146.5570983886719 40.19752883911133 C 144.7041473388672 40.81198120117188 142.8067932128906 41.11980056762695 140.4582061767578 41.11980056762695 C 137.2509613037109 41.11980056762695 134.4505462646484 39.80270004272461 134.2243194580078 36.99687957763672 L 148.4544372558594 37.04008102416992 L 148.4544372558594 37.04127883911133 L 148.4544372558594 37.04129028320312 C 148.5450439453125 36.51084899902344 148.6806640625 35.49316024780273 148.6806640625 34.34226989746094 C 148.6806640625 29.00185012817383 145.9696502685547 23.57981872558594 138.8320922851562 23.57981872558594 C 131.1970825195312 23.57981872558594 127.6730041503906 29.61809921264648 127.6730041503906 35.09473037719727 C 127.6730041503906 41.86806869506836 131.9651489257812 46.0977897644043 139.4639282226562 46.0977897644043 M 142.3117523193359 32.39571762084961 L 134.1799011230469 32.39571762084961 L 134.1793060302734 32.39571762084961 C 134.3599243164062 30.63278007507324 135.5354156494141 28.03157997131348 138.4714508056641 28.03157997131348 C 141.5881042480469 28.03157997131348 142.3117523193359 30.80858993530273 142.3117523193359 32.39571762084961 M 159.2600860595703 48.14400100708008 C 156.0896301269531 48.14400100708008 153.1832427978516 46.83219909667969 151.0763092041016 44.45024871826172 C 150.0347900390625 43.27277755737305 149.2253112792969 41.87677764892578 148.6703643798828 40.30101776123047 C 148.6248168945312 40.17168426513672 148.5810546875 40.04129409790039 148.5391235351562 39.91003036499023 L 149.4221954345703 44.34185791015625 L 149.7443084716797 45.95843887329102 L 148.2190093994141 46.58337783813477 C 145.7663726806641 47.5882682800293 142.8207397460938 48.0977897644043 139.4639282226562 48.0977897644043 C 135.291748046875 48.0977897644043 131.80517578125 46.88423919677734 129.3811187744141 44.58834075927734 C 126.9552459716797 42.29071807861328 125.6730041503906 39.00788879394531 125.6730041503906 35.09473037719727 C 125.6730041503906 28.3786792755127 130.1930541992188 21.57981872558594 138.8320922851562 21.57981872558594 C 143.7568817138672 21.57981872558594 146.54296875 23.83791923522949 148.0130004882812 25.73222923278809 C 148.5479583740234 26.42158508300781 149.0081024169922 27.19210815429688 149.3883361816406 28.02718353271484 C 149.9702606201172 26.89014625549316 150.7042083740234 25.8731575012207 151.5802612304688 24.99169921875 C 153.7381286621094 22.8205394744873 156.6264190673828 21.62483024597168 159.7131195068359 21.62483024597168 C 161.1489105224609 21.62483024597168 162.4733276367188 21.84932518005371 163.6301879882812 22.27353477478027 L 163.6301879882812 16.48320007324219 L 160.8585662841797 13.66459941864014 L 165.6295928955078 13.66399955749512 L 172.4965362548828 13.66399955749512 L 174.4965362548828 13.66399955749512 L 174.4965362548828 15.66399955749512 L 174.4965362548828 39.22486114501953 C 174.4965362548828 41.76715850830078 174.5921020507812 44.21334075927734 174.6739349365234 45.53562927246094 L 174.8053588867188 47.6591682434082 L 172.6777496337891 47.6591682434082 L 166.5794677734375 47.6591682434082 L 164.7456359863281 47.6591682434082 L 164.6666107177734 46.74930953979492 C 164.50634765625 46.84219360351562 164.3425750732422 46.93082427978516 164.1754302978516 47.01506805419922 C 162.7100219726562 47.75362014770508 161.0103302001953 48.14400100708008 159.2600860595703 48.14400100708008 Z M 138.9974670410156 39.01137924194336 C 139.4177551269531 39.08024978637695 139.9013977050781 39.11980056762695 140.4582061767578 39.11980056762695 C 141.1907501220703 39.11980056762695 141.8751831054688 39.08813858032227 142.5296783447266 39.02210235595703 L 138.9974670410156 39.01137924194336 Z M 161.5198669433594 30.78042984008789 C 160.6673278808594 30.78042984008789 160.0540466308594 31.08317947387695 159.5897979736328 31.73320007324219 C 159.06494140625 32.46809005737305 158.7758941650391 33.59477996826172 158.7758941650391 34.90571975708008 C 158.7758941650391 36.19686889648438 159.0757598876953 37.28305816650391 159.6202392578125 37.96419906616211 C 160.0753021240234 38.5334587097168 160.6817474365234 38.8101806640625 161.4742584228516 38.8101806640625 C 162.4979095458984 38.8101806640625 163.3260955810547 38.15582656860352 163.5368804931641 37.18115615844727 C 163.5962066650391 36.89268112182617 163.6301879882812 36.49771118164062 163.6301879882812 36.09621047973633 L 163.6301879882812 33.275390625 C 163.6301879882812 32.98775863647461 163.6301879882812 32.66175079345703 163.5894775390625 32.48183822631836 C 163.4039916992188 31.65835952758789 162.7632293701172 30.78042984008789 161.5198669433594 30.78042984008789 Z M 137.2615814208984 30.39571952819824 L 139.6300506591797 30.39571952819824 C 139.4061889648438 30.19004821777344 139.0644378662109 30.03157997131348 138.4714508056641 30.03157997131348 C 137.9884490966797 30.03157997131348 137.5937194824219 30.14891624450684 137.2615814208984 30.39571952819824 Z" stroke="none" fill="#fff"/>
    </g>
  </g>
</svg>
