<svg id="HSBC_logo__2018_" data-name="HSBC_logo_(2018)" xmlns="http://www.w3.org/2000/svg" width="179.049" height="48.234" viewBox="0 0 179.049 48.234">
  <rect id="Rectángulo_4" data-name="Rectángulo 4" width="48.177" height="48.177" transform="translate(24.145)" fill="#fff"/>
  <path id="Trazado_22" data-name="Trazado 22" d="M151.689,24.145,127.6,0V48.234Z" transform="translate(-55.277)" fill="#db0011"/>
  <path id="Trazado_23" data-name="Trazado 23" d="M66.689,24.145,90.777,0H42.6Z" transform="translate(-18.455)" fill="#db0011"/>
  <path id="Trazado_24" data-name="Trazado 24" d="M0,24.145,24.145,48.234V0Z" fill="#db0011"/>
  <path id="Trazado_25" data-name="Trazado 25" d="M66.689,42.6,42.6,66.689H90.777Z" transform="translate(-18.455 -18.455)" fill="#db0011"/>
  <path id="Trazado_26" data-name="Trazado 26" d="M197.393,36.263h-8.729v8.615H184.3V24.7h4.364v8.275h8.729V24.7h4.364V44.878h-4.364Z" transform="translate(-79.84 -10.7)"/>
  <path id="Trazado_27" data-name="Trazado 27" d="M227.592,45.015c-4.364,0-7.935-1.757-7.992-6.575h4.364c.057,2.154,1.3,3.457,3.684,3.457,1.757,0,3.8-.907,3.8-2.891,0-1.587-1.36-2.04-3.627-2.721l-1.474-.4c-3.174-.907-6.348-2.154-6.348-5.781,0-4.478,4.194-6.008,7.992-6.008,3.911,0,7.312,1.36,7.368,5.838h-4.364a2.944,2.944,0,0,0-3.287-2.891c-1.644,0-3.231.85-3.231,2.664,0,1.474,1.36,1.927,4.194,2.834l1.7.51c3.457,1.077,5.668,2.267,5.668,5.668C235.98,43.258,231.559,45.015,227.592,45.015Z" transform="translate(-95.133 -10.44)"/>
  <path id="Trazado_28" data-name="Trazado 28" d="M252.9,24.784h7.028a18.66,18.66,0,0,1,3.968.227c2.437.567,4.308,2.154,4.308,4.874,0,2.607-1.644,3.911-4.024,4.534,2.721.51,4.761,1.87,4.761,4.874,0,4.591-4.534,5.611-8.048,5.611h-7.935Zm7.028,8.389c1.927,0,3.911-.4,3.911-2.721,0-2.1-1.814-2.664-3.627-2.664h-3.061v5.385Zm.4,8.729c2.04,0,4.024-.453,4.024-2.947s-1.7-2.947-3.8-2.947h-3.457V41.9Z" transform="translate(-109.558 -10.728)"/>
  <path id="Trazado_29" data-name="Trazado 29" d="M294.009,44.971c-6.518,0-9.409-4.138-9.409-10.316S287.831,24,294.235,24c4.024,0,7.935,1.814,8.048,6.348H297.75a3.224,3.224,0,0,0-3.514-3.061c-3.968,0-5.158,4.251-5.158,7.482s1.19,6.972,4.988,6.972a3.474,3.474,0,0,0,3.741-3.117h4.534C301.887,43.271,298.2,44.971,294.009,44.971Z" transform="translate(-123.291 -10.397)"/>
</svg>
