<svg id="layer1" xmlns="http://www.w3.org/2000/svg" xmlns:xlink="http://www.w3.org/1999/xlink" width="188.998" height="99.531" viewBox="0 0 188.998 99.531">
  <defs>
    <clipPath id="clip-path">
      <path id="path3353" d="M538.927,12.069h189V-87.462h-189Z" transform="translate(-538.927 87.462)"/>
    </clipPath>
  </defs>
  <g id="g2993" transform="translate(0)">
    <g id="g3347" transform="translate(0 0)">
      <g id="g3349" clip-path="url(#clip-path)">
        <g id="g3355" transform="translate(20.146 19.402)">
          <path id="path3357" d="M4.225,1.078-16.214-6.914a50.812,50.812,0,0,0-10.9,7.991,51.238,51.238,0,0,0,10.9,7.991Z" transform="translate(27.111 6.914)" fill="#b07e25"/>
        </g>
        <g id="g3359" transform="translate(8.866 10.729)">
          <path id="path3361" d="M0,0S2.164,7.035,9.266,14.612A51.174,51.174,0,0,1,20.718,8.1Z" fill="#a7a5a6"/>
        </g>
        <g id="g3363" transform="translate(8.866 29.443)">
          <path id="path3365" d="M0,1.97S2.164-5.06,9.266-12.641A51.279,51.279,0,0,0,20.718-6.128Z" transform="translate(0 12.641)" fill="#a49668"/>
        </g>
        <g id="g3367" transform="translate(20.145 51.701)">
          <path id="path3369" d="M12.5,2.152H6.719V-4.18h4.365v1.9h1.463V-7.494H11.084v1.878H6.719v-6.033h5.556v2.114h1.44v-4.271H12.251v.7H2.071v1.234H3.926V2.339H2.071V3.587H13.964V-.038H12.5ZM75.422-13.107v1.234h1.884V-1.287l-8.633-11.82h-4.33v1.234h1.793l.593.836V2.339H64.847V3.587h5.33V2.339H68.291V-8.907L77.569,3.865h1.3V-11.873h1.86v-1.234h-5.31Zm-21.5-.3A8.512,8.512,0,0,0,45.6-4.735a8.5,8.5,0,0,0,8.316,8.643,8.476,8.476,0,0,0,8.248-8.671,8.461,8.461,0,0,0-8.248-8.646m0,15.7c-3.1,0-5.253-2.9-5.253-7.056s2.175-7.03,5.281-7.03c3.037,0,5.159,2.888,5.159,7.03s-2.131,7.056-5.187,7.056m-65.359-3.4-5.622-12h-4.661v1.234h1.882V2.339h-1.882V3.587h5.333V2.339h-1.882V-9.242l6.226,13.3L-6.134-8.949V2.339H-7.991V3.587H-1.48V2.339H-3.347V-11.873H-1.48v-1.234H-5.909Zm39.6,3.258h-5.49V-11.873h1.865v-1.234H18.011v1.234h1.864V2.339H18.011V3.587H29.625V-.038H28.159Zm14.308,0h-5.5V-11.873h1.86v-1.234H32.308v1.234h1.868V2.339H32.308V3.587H43.922V-.038H42.467ZM-36.593-11.873h2.136l-3.587,5.918L-41.9-11.873h1.935v-1.234h-6.741v1.234H-45.2l5.077,7.805V2.339h-1.86V3.587h6.511V2.339h-1.885V-4.214l4.694-7.659h1.353v-1.234h-5.284ZM-70.754-5.226a3.872,3.872,0,0,0,3.064-3.66c0-2.565-1.9-4.221-4.856-4.221h-7.664v1.234h1.86V2.339h-1.86V3.587h8.1c3.126,0,5.214-1.778,5.214-4.429,0-2.622-1.882-3.954-3.859-4.384m-4.8-6.423h2.047A2.619,2.619,0,0,1-70.6-8.788a2.866,2.866,0,0,1-3.043,3h-1.912Zm2.139,13.8h-2.139v-6.5h2.139c2.226,0,3.663,1.328,3.663,3.382,0,2.3-1.967,3.121-3.663,3.121m20.126-14.025H-51.4V-1.287l-8.643-11.82h-4.316v1.234h1.784l.589.836V2.345h-1.886V3.587h5.333V2.345h-1.878V-8.907l9.28,12.772h1.3V-11.873h1.861v-1.234h-5.313v1.234Z" transform="translate(80.211 13.807)" fill="#4f4c4d"/>
        </g>
      </g>
    </g>
  </g>
</svg>
