<svg xmlns="http://www.w3.org/2000/svg" width="118.466" height="31.073" viewBox="0 0 118.466 31.073">
  <path id="logo" d="M58.176,0l-5,2.13V15.793a9.616,9.616,0,0,0,9.636,9.322v-4.98A4.593,4.593,0,0,1,59.544,18.8a4.665,4.665,0,0,1-1.373-3.276V10.826h4.643V5.859H58.176ZM41.591,5.859a9.589,9.589,0,1,0,9.642,9.587,9.554,9.554,0,0,0-9.642-9.587Zm0,14.205a4.617,4.617,0,1,1,4.643-4.622,4.665,4.665,0,0,1-1.371,3.281,4.593,4.593,0,0,1-3.272,1.34ZM73.669,5.858a9.59,9.59,0,1,0,9.644,9.588,9.556,9.556,0,0,0-9.644-9.588Zm0,14.206a4.617,4.617,0,1,1,4.64-4.622A4.6,4.6,0,0,1,73.669,20.065ZM10.114,5.858A9.619,9.619,0,0,0,.472,15.447c0,.126,0,.252.01.378H.472V28.944l5,2.129V23.852a9.647,9.647,0,0,0,4.643,1.185,9.5,9.5,0,0,0,8.35-4.757,9.652,9.652,0,0,0,0-9.664,9.5,9.5,0,0,0-8.349-4.756Zm0,14.206a4.617,4.617,0,1,1,4.643-4.622,4.667,4.667,0,0,1-1.371,3.28,4.6,4.6,0,0,1-3.271,1.342Zm11.458-4.89V25.1h5V15.443a4.665,4.665,0,0,1,1.373-3.277,4.593,4.593,0,0,1,3.269-1.339V5.859a9.615,9.615,0,0,0-9.642,9.322ZM109.3,5.852a9.584,9.584,0,1,1,0,.007Zm0,14.2a4.617,4.617,0,1,1,4.643-4.617,4.665,4.665,0,0,1-1.369,3.282,4.593,4.593,0,0,1-3.273,1.343v-.008Zm-16.6,4.98h5V5.858h-5V25.036Zm-5.337-6.45A3.224,3.224,0,1,0,90.6,21.811,3.213,3.213,0,0,0,87.357,18.587Z" transform="translate(-0.472)" fill="#161637" fill-rule="evenodd"/>
</svg>
