<svg id="eagle-investment-systems-seeklogo.com" xmlns="http://www.w3.org/2000/svg" width="156.062" height="64.994" viewBox="0 0 156.062 64.994">
  <path id="Trazado_2" data-name="Trazado 2" d="M307.607,229.161v11.491a18.68,18.68,0,0,1-10.841,3.224c-10.4,0-16.82-8.059-16.82-19.836,0-11.855,6.5-19.836,16.326-19.836a18.584,18.584,0,0,1,12.089,4.342l.572-3.276a21.207,21.207,0,0,0-12.609-3.77c-11.413,0-19.524,9.385-19.524,22.618s7.8,22.488,19.836,22.488a24.079,24.079,0,0,0,13.987-4.524V229.187Z" transform="translate(-211.729 -201.5)" fill="#898788"/>
  <path id="Trazado_3" data-name="Trazado 3" d="M458.369,245.264V207.2h18.952v-2.7H455.327v40.764H429.616V204.5H426.6v43.468h51.345v-2.7Z" transform="translate(-322.585 -203.72)" fill="#898788"/>
  <path id="Trazado_4" data-name="Trazado 4" d="M76.207,203.5H72.931l-16.2,41.024H29.516v-38.06H48.468v-2.7H26.5v43.468H58.815L61.674,240l12.011-30.937.806-2.158v.026h.026l7.071,17.6,8.579,22.514h0l3.3-.078Z" transform="translate(-26.5 -202.98)" fill="#898788"/>
  <rect id="Rectángulo_1" data-name="Rectángulo 1" width="0.546" height="7.773" transform="translate(0 57.116)" fill="#898788"/>
  <path id="Trazado_5" data-name="Trazado 5" d="M52.577,428.973l-4.757-6.941v6.941H47.3V421.2h.546l4.654,6.759V421.2h.52v7.773Z" transform="translate(-41.893 -364.084)" fill="#898788"/>
  <path id="Trazado_6" data-name="Trazado 6" d="M88.936,428.8h-.494L85.4,421.03l.52-.13,2.782,7.253,2.756-7.175h.572Z" transform="translate(-70.088 -363.862)" fill="#898788"/>
  <path id="Trazado_7" data-name="Trazado 7" d="M127,428.973V421.2h3.926v.494H127.52v2.964h2.73l.078.494H127.52v3.354h3.51v.468Z" transform="translate(-100.873 -364.084)" fill="#898788"/>
  <path id="Trazado_8" data-name="Trazado 8" d="M159.176,428.781a3.728,3.728,0,0,1-1.976-.468l.078-.546a3.956,3.956,0,0,0,1.95.52,1.631,1.631,0,0,0,1.794-1.586c0-.806-.442-1.274-1.638-1.794-1.508-.65-2.054-1.17-2.054-2.236a1.966,1.966,0,0,1,2.132-1.872,3.31,3.31,0,0,1,1.69.39l-.078.546a3.093,3.093,0,0,0-1.612-.442,1.394,1.394,0,0,0-1.534,1.352c0,.806.442,1.2,1.664,1.716,1.378.572,2.028,1.2,2.028,2.288a2.281,2.281,0,0,1-2.444,2.132" transform="translate(-123.222 -363.788)" fill="#898788"/>
  <path id="Trazado_9" data-name="Trazado 9" d="M190.268,421.694v7.279h-.52v-7.279H187.2V421.2h5.537l.078.494Z" transform="translate(-145.422 -364.084)" fill="#898788"/>
  <path id="Trazado_10" data-name="Trazado 10" d="M230.525,428.973l-.52-6.993-2.912,7.045h-.442l-2.886-7.045-.546,6.993h-.52l.65-7.773H224l2.886,7.123L229.8,421.2h.65l.624,7.773Z" transform="translate(-171.693 -364.084)" fill="#898788"/>
  <path id="Trazado_11" data-name="Trazado 11" d="M272.6,428.973V421.2h3.952v.494h-3.406v2.964h2.73l.078.494h-2.808v3.354h3.51v.468Z" transform="translate(-208.621 -364.084)" fill="#898788"/>
  <path id="Trazado_12" data-name="Trazado 12" d="M309.5,428.973l-4.784-6.941v6.941h-.52V421.2h.572l4.628,6.759V421.2h.52v7.773Z" transform="translate(-232.005 -364.084)" fill="#898788"/>
  <path id="Trazado_13" data-name="Trazado 13" d="M344.968,421.694v7.279h-.546v-7.279H341.9V421.2h5.537l.078.494Z" transform="translate(-259.904 -364.084)" fill="#898788"/>
  <path id="Trazado_14" data-name="Trazado 14" d="M399.076,428.781a3.728,3.728,0,0,1-1.976-.468l.078-.546a3.93,3.93,0,0,0,1.924.52A1.631,1.631,0,0,0,400.9,426.7c0-.806-.442-1.274-1.638-1.794-1.508-.65-2.054-1.17-2.054-2.236a1.966,1.966,0,0,1,2.132-1.872,3.31,3.31,0,0,1,1.69.39l-.078.546a3.093,3.093,0,0,0-1.612-.442,1.394,1.394,0,0,0-1.534,1.352c0,.806.442,1.2,1.664,1.716,1.378.572,2.028,1.2,2.028,2.288a2.242,2.242,0,0,1-2.418,2.132" transform="translate(-300.754 -363.788)" fill="#898788"/>
  <path id="Trazado_15" data-name="Trazado 15" d="M430,425.424v3.328h-.546v-3.328L426.7,421.03l.52-.13,2.522,4.082,2.444-4h.572Z" transform="translate(-322.659 -363.862)" fill="#898788"/>
  <path id="Trazado_16" data-name="Trazado 16" d="M465.276,428.781a3.727,3.727,0,0,1-1.976-.468l.078-.546a3.957,3.957,0,0,0,1.95.52,1.631,1.631,0,0,0,1.794-1.586c0-.806-.442-1.274-1.638-1.794-1.508-.65-2.028-1.17-2.028-2.236a1.958,1.958,0,0,1,2.106-1.872,3.31,3.31,0,0,1,1.69.39l-.078.546a3.093,3.093,0,0,0-1.612-.442,1.394,1.394,0,0,0-1.534,1.352c0,.806.442,1.2,1.664,1.716,1.378.572,2.028,1.2,2.028,2.288a2.281,2.281,0,0,1-2.444,2.132" transform="translate(-349.744 -363.788)" fill="#898788"/>
  <path id="Trazado_17" data-name="Trazado 17" d="M496.394,421.694v7.279h-.546v-7.279H493.3V421.2h5.563l.052.494Z" transform="translate(-371.945 -364.084)" fill="#898788"/>
  <path id="Trazado_18" data-name="Trazado 18" d="M530.2,428.973V421.2h3.952v.494h-3.406v2.964h2.73l.078.494h-2.808v3.354h3.51v.468Z" transform="translate(-399.251 -364.084)" fill="#898788"/>
  <path id="Trazado_19" data-name="Trazado 19" d="M569.025,428.973l-.52-6.993-2.886,7.045h-.468l-2.886-7.045-.546,6.993h-.52l.65-7.773h.65l2.886,7.123L568.3,421.2h.65l.624,7.773Z" transform="translate(-422.192 -364.084)" fill="#898788"/>
  <path id="Trazado_20" data-name="Trazado 20" d="M611.676,428.781a3.727,3.727,0,0,1-1.976-.468l.078-.546a3.957,3.957,0,0,0,1.95.52,1.631,1.631,0,0,0,1.794-1.586c0-.806-.442-1.274-1.638-1.794-1.508-.65-2.028-1.17-2.028-2.236a1.966,1.966,0,0,1,2.132-1.872,3.31,3.31,0,0,1,1.69.39l-.078.546a3.094,3.094,0,0,0-1.612-.442,1.394,1.394,0,0,0-1.534,1.352c0,.806.442,1.2,1.664,1.716,1.378.572,2.028,1.2,2.028,2.288a2.289,2.289,0,0,1-2.47,2.132" transform="translate(-458.084 -363.788)" fill="#898788"/>
  <path id="Trazado_21" data-name="Trazado 21" d="M192.1,283.842h10.217l-1.2-3.042h-7.773Z" transform="translate(-149.048 -260.184)" fill="#b3a474"/>
  <rect id="Rectángulo_2" data-name="Rectángulo 2" width="10.555" height="3.042" transform="translate(5.641 20.616)" fill="#bf9228"/>
  <rect id="Rectángulo_3" data-name="Rectángulo 3" width="10.555" height="3.042" transform="translate(138.228 20.616)" fill="#b5b5b6"/>
</svg>
