<svg xmlns="http://www.w3.org/2000/svg"
     width="250px"
     viewBox="0 0 539 394">
  <path id="Selección"
        fill="white" stroke-width="1"
        d="M 130.00,255.00
           C 119.57,257.84 99.87,270.59 90.58,276.99
             79.76,284.43 68.74,292.32 59.00,301.17
             59.00,301.17 52.58,307.63 52.58,307.63
             52.58,307.63 45.42,313.47 45.42,313.47
             45.42,313.47 28.33,333.00 28.33,333.00
             23.51,339.28 17.54,349.79 14.14,357.00
             14.14,357.00 9.98,365.17 9.98,365.17
             8.46,371.86 12.28,379.77 20.00,378.51
             26.20,377.49 31.38,372.98 36.01,369.08
             36.01,369.08 56.83,351.45 56.83,351.45
             56.83,351.45 83.09,326.16 83.09,326.16
             83.09,326.16 119.96,289.00 119.96,289.00
             125.41,283.30 140.94,265.42 146.00,261.79
             152.65,257.01 156.94,256.85 163.00,253.38
             163.00,253.38 186.00,238.09 186.00,238.09
             186.00,238.09 239.00,215.24 239.00,215.24
             239.00,215.24 262.00,205.18 262.00,205.18
             264.75,204.20 270.50,202.49 271.83,199.72
             273.20,196.85 270.06,196.30 267.98,196.66
             267.98,196.66 255.00,201.14 255.00,201.14
             255.00,201.14 230.00,211.24 230.00,211.24
             230.00,211.24 222.00,213.87 222.00,213.87
             222.00,213.87 202.00,222.00 202.00,222.00
             209.56,214.90 221.82,202.61 227.14,194.00
             229.20,190.66 231.84,182.80 227.69,180.02
             225.65,178.66 220.51,179.00 218.00,179.00
             218.00,179.00 242.72,146.00 242.72,146.00
             246.96,140.63 251.03,133.84 256.04,129.29
             264.10,121.96 265.77,123.07 273.00,118.67
             273.00,118.67 298.96,100.25 298.96,100.25
             303.51,96.65 314.23,85.52 309.40,79.27
             308.00,77.47 306.01,76.82 304.00,76.00
             314.64,67.27 324.40,57.64 336.00,50.04
             340.22,47.28 340.38,47.89 344.00,46.12
             357.45,39.57 359.48,37.13 375.00,31.25
             384.25,27.74 388.89,23.12 399.00,23.14
             400.76,22.98 404.40,22.94 406.00,23.14
             408.50,23.80 410.62,25.06 412.11,27.19
             416.75,33.85 405.54,43.77 401.00,47.83
             389.11,58.46 365.20,72.39 350.00,77.33
             350.00,77.33 343.00,78.90 343.00,78.90
             343.00,78.90 327.23,82.74 327.23,82.74
             325.24,83.69 324.19,85.62 325.28,87.72
             326.55,90.14 330.53,90.82 333.00,90.82
             336.93,90.83 349.89,86.72 354.00,85.19
             374.17,77.66 399.28,63.92 413.83,47.99
             420.96,40.17 427.14,25.80 416.82,17.92
             409.17,12.08 397.57,13.73 389.00,16.34
             370.51,21.98 350.48,30.70 334.00,40.81
             323.00,47.56 313.58,54.50 304.00,63.17
             299.87,66.90 292.97,74.60 289.00,77.19
             289.00,77.19 275.00,83.81 275.00,83.81
             275.00,83.81 256.00,95.08 256.00,95.08
             256.00,95.08 240.00,106.59 240.00,106.59
             240.00,106.59 217.00,122.75 217.00,122.75
             217.00,122.75 198.00,138.83 198.00,138.83
             198.00,138.83 189.09,145.62 189.09,145.62
             178.17,155.09 164.84,167.88 155.12,178.58
             141.46,193.60 132.15,205.12 126.34,225.00
             123.10,236.08 122.35,245.33 130.00,255.00 Z
           M 299.00,85.00
           C 297.10,91.43 286.16,100.59 280.00,103.00
             281.24,94.88 291.23,86.67 299.00,85.00 Z
           M 270.00,97.00
           C 265.94,102.49 262.46,104.17 256.00,106.00
             256.00,106.00 270.00,97.00 270.00,97.00 Z
           M 256.00,106.00
           C 256.00,106.00 256.00,107.00 256.00,107.00
             256.00,107.00 255.00,106.00 255.00,106.00
             255.00,106.00 256.00,106.00 256.00,106.00 Z
           M 254.00,107.00
           C 254.00,107.00 254.00,108.00 254.00,108.00
             254.00,108.00 253.00,107.00 253.00,107.00
             253.00,107.00 254.00,107.00 254.00,107.00 Z
           M 253.00,117.00
           C 253.00,117.00 253.00,118.00 253.00,118.00
             253.00,118.00 252.00,117.00 252.00,117.00
             252.00,117.00 253.00,117.00 253.00,117.00 Z
           M 252.00,118.00
           C 248.16,124.80 239.65,128.15 233.00,131.86
             227.93,134.69 224.91,137.19 219.00,138.00
             223.82,131.88 229.42,130.13 236.00,126.52
             236.00,126.52 252.00,118.00 252.00,118.00 Z
           M 235.00,141.00
           C 235.00,141.00 217.65,164.00 217.65,164.00
             212.01,171.38 199.56,188.31 193.00,193.62
             193.00,193.62 184.00,199.52 184.00,199.52
             178.51,203.22 167.65,210.68 173.00,218.00
             170.12,224.22 153.79,241.48 148.00,245.40
             144.76,247.59 138.49,251.47 135.56,246.76
             131.83,239.90 133.11,235.71 135.56,229.00
             135.56,229.00 140.43,215.00 140.43,215.00
             145.47,202.64 153.66,193.41 162.55,183.72
             171.70,173.75 178.46,166.39 189.00,157.59
             193.70,153.67 204.33,144.17 209.00,142.00
             214.44,152.57 227.03,143.25 235.00,141.00 Z
           M 452.00,215.00
           C 446.64,216.86 436.63,220.70 432.03,223.67
             428.08,226.25 426.75,229.16 432.03,231.00
             432.03,231.00 407.02,248.80 407.02,248.80
             404.97,250.31 399.49,254.22 403.41,256.96
             407.01,259.48 413.98,254.09 417.00,252.14
             417.00,252.14 454.00,226.00 454.00,226.00
             454.00,226.00 448.56,235.00 448.56,235.00
             445.93,240.34 448.00,246.17 454.00,247.69
             458.62,248.85 465.51,246.89 469.98,245.51
             472.15,244.85 476.92,242.69 474.87,239.59
             473.84,238.03 471.57,238.27 470.00,238.48
             463.61,239.35 464.16,240.72 457.00,239.00
             461.81,231.88 467.06,226.91 468.00,218.00
             476.27,217.61 476.01,216.34 483.00,214.29
             493.95,211.09 504.58,206.95 515.00,202.27
             518.18,200.84 528.26,195.95 529.34,192.80
             531.57,186.35 522.36,187.19 519.00,188.22
             519.00,188.22 497.00,197.50 497.00,197.50
             497.00,197.50 484.00,202.00 484.00,202.00
             484.00,202.00 504.00,184.09 504.00,184.09
             504.00,184.09 516.00,173.01 516.00,173.01
             519.84,169.23 526.10,163.48 527.30,158.00
             529.30,148.88 514.28,152.13 510.00,154.32
             504.14,157.32 499.40,160.86 494.00,164.48
             479.71,174.06 474.03,176.16 461.85,190.00
             455.09,197.67 449.40,204.29 452.00,215.00 Z
           M 516.00,160.00
           C 516.00,160.00 516.00,161.00 516.00,161.00
             516.00,161.00 515.00,160.00 515.00,160.00
             515.00,160.00 516.00,160.00 516.00,160.00 Z
           M 293.00,222.00
           C 290.33,227.67 281.65,234.97 284.60,241.85
             286.15,245.49 290.71,245.07 294.00,244.99
             303.06,244.77 323.37,234.73 328.00,227.00
             320.51,225.06 313.65,229.93 307.00,232.83
             307.00,232.83 294.00,237.00 294.00,237.00
             304.12,225.35 309.71,219.31 324.00,212.80
             332.77,208.80 341.21,210.96 346.00,203.00
             346.00,203.00 340.00,202.00 340.00,202.00
             340.00,202.00 362.00,187.00 362.00,187.00
             368.21,183.21 382.00,174.54 385.85,168.83
             388.82,164.44 387.73,160.37 382.00,160.20
             378.63,160.10 371.99,162.72 369.00,164.35
             369.00,164.35 351.00,176.93 351.00,176.93
             351.00,176.93 327.00,192.46 327.00,192.46
             327.00,192.46 310.96,206.86 310.96,206.86
             310.96,206.86 293.00,214.22 293.00,214.22
             291.08,215.08 287.11,216.34 286.17,218.24
             284.19,222.22 290.99,221.97 293.00,222.00 Z
           M 515.00,161.00
           C 515.00,161.00 498.00,179.82 498.00,179.82
             498.00,179.82 490.00,186.17 490.00,186.17
             490.00,186.17 460.00,210.00 460.00,210.00
             460.05,203.46 465.29,198.83 469.20,194.00
             477.65,183.55 485.88,177.75 497.00,170.56
             504.48,165.72 505.68,163.64 515.00,161.00 Z
           M 218.00,188.00
           C 217.14,193.65 214.35,196.56 210.87,200.96
             205.08,208.28 193.25,219.24 186.00,225.43
             181.00,229.69 174.52,235.08 168.00,237.00
             171.42,230.59 181.76,222.52 186.41,217.00
             196.07,205.53 203.84,194.14 218.00,188.00 Z
           M 397.00,221.00
           C 397.00,221.00 396.00,217.00 396.00,217.00
             390.18,218.72 385.76,223.20 390.00,229.00
             364.99,254.01 338.27,276.40 310.00,297.59
             310.00,297.59 291.00,311.83 291.00,311.83
             277.23,321.03 257.72,334.23 241.00,335.48
             230.86,336.25 224.69,330.03 228.93,320.00
             231.61,313.65 242.32,305.31 248.00,301.34
             263.49,290.52 287.57,278.12 305.00,270.31
             305.00,270.31 313.00,267.26 313.00,267.26
             313.00,267.26 335.00,257.01 335.00,257.01
             335.00,257.01 345.00,253.18 345.00,253.18
             345.00,253.18 355.00,248.00 355.00,248.00
             355.00,248.00 355.00,246.00 355.00,246.00
             355.00,246.00 352.00,245.00 352.00,245.00
             366.96,230.18 384.68,219.64 402.00,208.00
             399.02,202.78 395.61,204.47 391.00,206.89
             391.00,206.89 370.00,220.00 370.00,220.00
             367.22,211.28 358.68,216.17 353.00,218.90
             342.12,224.11 330.13,231.72 321.00,239.59
             313.98,245.65 317.07,249.37 319.97,248.95
             321.51,248.73 327.15,244.03 329.00,242.78
             332.35,240.52 334.34,238.90 338.00,237.01
             338.00,237.01 353.00,228.00 353.00,228.00
             347.98,233.02 337.91,241.56 338.00,249.00
             330.58,250.16 326.57,252.79 320.00,255.66
             320.00,255.66 293.00,267.37 293.00,267.37
             274.55,276.08 248.27,287.77 233.00,301.18
             228.16,305.43 221.16,311.99 218.88,318.00
             212.35,335.18 226.68,343.45 242.00,342.96
             262.12,342.32 284.26,327.28 300.00,315.86
             300.00,315.86 323.00,299.67 323.00,299.67
             323.00,299.67 353.00,274.17 353.00,274.17
             353.00,274.17 367.83,261.60 367.83,261.60
             367.83,261.60 394.66,236.74 394.66,236.74
             403.77,228.19 413.65,220.11 424.00,213.09
             427.56,210.67 437.06,204.79 438.34,200.85
             440.84,193.18 429.90,196.80 427.00,198.19
             418.03,202.52 406.13,215.29 397.00,221.00 Z
           M 202.00,222.00
           C 202.00,222.00 202.00,223.00 202.00,223.00
             202.00,223.00 201.00,222.00 201.00,222.00
             201.00,222.00 202.00,222.00 202.00,222.00 Z
           M 267.00,240.00
           C 259.79,238.11 256.68,241.12 250.00,243.00
             256.13,237.55 266.82,226.78 253.00,222.73
             251.29,222.23 249.78,222.01 248.00,222.12
             241.44,222.53 225.12,234.51 220.01,239.00
             217.64,241.09 213.26,244.62 213.13,248.00
             212.88,254.26 220.48,255.20 225.00,254.57
             232.64,253.50 233.89,252.04 238.00,251.33
             238.00,251.33 246.00,250.71 246.00,250.71
             250.16,250.17 261.64,246.95 264.58,244.30
             266.18,242.86 266.32,241.88 267.00,240.00 Z
           M 455.00,225.00
           C 455.00,225.00 455.00,226.00 455.00,226.00
             455.00,226.00 454.00,225.00 454.00,225.00
             454.00,225.00 455.00,225.00 455.00,225.00 Z
           M 373.50,170.00
           C 376.39,168.75 334.54,199.82 327.75,202.75
             323.09,199.06 371.48,168.40 373.50,170.00 Z
           M 234.00,238.00
           C 235.20,249.79 230.27,246.72 222.00,246.25
             225.09,242.29 229.41,240.07 234.00,238.00 Z
           M 129.00,265.00
           C 129.00,265.00 103.16,293.03 103.16,293.03
             103.16,293.03 55.00,341.17 55.00,341.17
             48.01,347.48 29.90,363.98 22.00,367.00
             22.00,367.00 21.00,363.00 21.00,363.00
             21.00,363.00 25.00,361.00 25.00,361.00
             23.72,353.59 28.16,350.49 32.32,345.00
             32.32,345.00 43.13,330.00 43.13,330.00
             51.32,320.43 55.03,317.82 64.00,309.83
             77.85,297.48 89.09,288.09 105.00,278.34
             110.90,274.73 122.88,266.93 129.00,265.00 Z" />
</svg>